<svg width="36" height="37" viewBox="0 0 36 37" fill="none" xmlns="http://www.w3.org/2000/svg">
<g clip-path="url(#clip0_2168_51)">
<path fill-rule="evenodd" clip-rule="evenodd" d="M23.5268 6.24717C24.8391 4.72619 25.7237 2.60776 25.4817 0.5C23.5905 0.572 21.3026 1.70806 19.9466 3.22725C18.7289 4.57543 17.6659 6.72961 17.9517 8.796C20.0612 8.95258 22.2145 7.76993 23.5268 6.24717ZM28.2574 19.625C28.3102 25.0735 33.2446 26.886 33.2992 26.9094C33.2592 27.0372 32.5111 29.4919 30.7 32.0299C29.1329 34.2223 27.5075 36.4057 24.9465 36.4525C22.4311 36.4975 21.6211 35.0234 18.7435 35.0234C15.8676 35.0234 14.9685 36.4056 12.5877 36.4974C10.1159 36.5856 8.23207 34.1254 6.65399 31.9402C3.42504 27.4709 0.958736 19.3102 4.27142 13.8022C5.91683 11.0681 8.85638 9.33402 12.0489 9.29082C14.4752 9.24582 16.7668 10.8553 18.2502 10.8553C19.7336 10.8553 22.5184 8.92029 25.4453 9.20469C26.6702 9.25329 30.1103 9.67794 32.3181 12.7757C32.1398 12.8819 28.2137 15.0711 28.2574 19.625Z" fill="black"/>
</g>
<defs>
<clipPath id="clip0_2168_51">
<rect width="36" height="36" fill="white" transform="translate(0 0.5)"/>
</clipPath>
</defs>
</svg>
