<svg width="25" height="24" viewBox="0 0 25 24" fill="none" xmlns="http://www.w3.org/2000/svg">
<g clip-path="url(#clip0_20_436)">
<path opacity="0.4" d="M22.7 9.59985H18.2473C18.7231 10.7095 18.5143 12.0449 17.6098 12.9494L12.5 18.0591V19.7999C12.5 20.794 13.3059 21.5999 14.3 21.5999H22.7C23.6941 21.5999 24.5 20.794 24.5 19.7999V11.3999C24.5 10.4057 23.6941 9.59985 22.7 9.59985Z" fill="white"/>
<path fill-rule="evenodd" clip-rule="evenodd" d="M10.2013 2.93878L16.7611 9.49865C17.4796 10.2172 17.4796 11.3823 16.7611 12.1012L10.2009 18.661C9.48237 19.3795 8.31725 19.3795 7.59875 18.661L1.03887 12.1008C0.320374 11.3823 0.32068 10.2172 1.03918 9.49865L7.59912 2.93878C8.31762 2.22028 9.48275 2.22028 10.2013 2.93878ZM3.2 10.7999C3.2 11.2968 3.60312 11.6999 4.1 11.6999C4.59687 11.6999 5 11.2968 5 10.7999C5 10.3027 4.59687 9.8999 4.1 9.8999C3.60312 9.8999 3.2 10.3027 3.2 10.7999ZM8 15.5999C8 16.0968 8.40312 16.4999 8.9 16.4999C9.39687 16.4999 9.8 16.0968 9.8 15.5999C9.8 15.1027 9.39687 14.6999 8.9 14.6999C8.40312 14.6999 8 15.1027 8 15.5999ZM8 10.7999C8 11.2968 8.40312 11.6999 8.9 11.6999C9.39687 11.6999 9.8 11.2968 9.8 10.7999C9.8 10.3027 9.39687 9.8999 8.9 9.8999C8.40312 9.8999 8 10.3027 8 10.7999ZM8 5.9999C8 6.49678 8.40312 6.8999 8.9 6.8999C9.39687 6.8999 9.8 6.49678 9.8 5.9999C9.8 5.50265 9.39687 5.0999 8.9 5.0999C8.40312 5.0999 8 5.50265 8 5.9999ZM12.8 10.7999C12.8 11.2968 13.2031 11.6999 13.7 11.6999C14.1969 11.6999 14.6 11.2968 14.6 10.7999C14.6 10.3027 14.1969 9.8999 13.7 9.8999C13.2031 9.8999 12.8 10.3027 12.8 10.7999Z" fill="white"/>
<path fill-rule="evenodd" clip-rule="evenodd" d="M17.6 15.6C17.6 16.0968 18.0031 16.5 18.5 16.5C18.9969 16.5 19.4 16.0968 19.4 15.6C19.4 15.1027 18.9969 14.7 18.5 14.7C18.0031 14.7 17.6 15.1027 17.6 15.6Z" fill="white"/>
</g>
<defs>
<clipPath id="clip0_20_436">
<rect width="24" height="24" fill="white" transform="translate(0.5)"/>
</clipPath>
</defs>
</svg>
