<svg width="37" height="37" viewBox="0 0 37 37" fill="none" xmlns="http://www.w3.org/2000/svg">
<g clip-path="url(#clip0_2168_40)">
<path fill-rule="evenodd" clip-rule="evenodd" d="M8.24538 18.4999C8.24538 17.3567 8.43525 16.2607 8.77413 15.2327L2.84252 10.7031C1.68648 13.0503 1.03516 15.6951 1.03516 18.4999C1.03516 21.3023 1.68568 23.9455 2.84012 26.2911L8.76853 21.7527C8.43285 20.7295 8.24538 19.6375 8.24538 18.4999Z" fill="#FBBC05"/>
<path fill-rule="evenodd" clip-rule="evenodd" d="M18.6594 8.0999C21.143 8.0999 23.3861 8.9799 25.1486 10.4199L30.2759 5.2999C27.1515 2.5799 23.1458 0.899902 18.6594 0.899902C11.6944 0.899902 5.70826 4.8831 2.8418 10.7031L8.77341 15.2327C10.1401 11.0839 14.0361 8.0999 18.6594 8.0999Z" fill="#EB4335"/>
<path fill-rule="evenodd" clip-rule="evenodd" d="M18.6594 28.8999C14.0361 28.8999 10.1401 25.9159 8.77341 21.7671L2.8418 26.2959C5.70826 32.1167 11.6944 36.0999 18.6594 36.0999C22.9583 36.0999 27.0626 34.5735 30.1429 31.7135L24.5125 27.3607C22.9239 28.3615 20.9234 28.8999 18.6594 28.8999Z" fill="#34A853"/>
<path fill-rule="evenodd" clip-rule="evenodd" d="M35.484 18.4998C35.484 17.4598 35.3238 16.3398 35.0835 15.2998H18.6602V22.0998H28.1136C27.6409 24.4182 26.3543 26.2006 24.5133 27.3606L30.1436 31.7134C33.3794 28.7102 35.484 24.2366 35.484 18.4998Z" fill="#4285F4"/>
</g>
<defs>
<clipPath id="clip0_2168_40">
<rect width="36" height="36" fill="white" transform="translate(0.5 0.5)"/>
</clipPath>
</defs>
</svg>
