<svg width="167" height="26" viewBox="0 0 167 26" fill="none" xmlns="http://www.w3.org/2000/svg">
<path d="M10.8438 12.4333L17.4375 21.574H11L6.25 14.9646H5.5625V21.574H0V3.43335H5.5625V10.8865H6.20312L11.3594 3.43335H17.1719L10.8438 12.4333Z" fill="#6C5CD6"/>
<path d="M33.375 21.574V11.7146H33.1094L26.5156 21.574H21.2188V3.43335H26.7656V13.2927H27.0312L33.625 3.43335H38.9219V21.574H33.375Z" fill="white"/>
<path d="M61.8281 21.574H56.2812V14.5896H49.8125V21.574H44.25V3.43335H49.8125V10.2927H56.2812V3.43335H61.8281V21.574Z" fill="white"/>
<path d="M100.547 21.574H94.9844V7.74585H89.8438V3.43335H105.703V7.74585H100.547V21.574Z" fill="white"/>
<path d="M123.25 17.2615V21.574H110.062V3.43335H123.25V7.74585H115.625V10.574H122.766V14.4646H115.625V17.2615H123.25Z" fill="white"/>
<path d="M139.125 12.4333L145.719 21.574H139.281L134.531 14.9646H133.844V21.574H128.281V3.43335H133.844V10.8865H134.484L139.641 3.43335H145.453L139.125 12.4333Z" fill="white"/>
<path d="M160.906 21.574L159.984 18.0271H154.359L153.391 21.574H147.906L153.953 3.43335H160.953L167 21.574H160.906ZM157.078 7.94897L155.344 14.199H159.016L157.344 7.94897H157.078Z" fill="white"/>
<g clip-path="url(#clip0_2168_258)">
<path d="M83.1374 23.67C86.7656 21.5005 89.195 17.5339 89.195 13C89.195 6.13761 83.6322 0.573975 76.7698 0.573975C69.9065 0.573975 64.3438 6.13761 64.3438 13C64.3438 19.8624 69.9065 25.4261 76.7698 25.4261H92.3438V23.6701L83.1374 23.67ZM81.7608 6.97755C83.0486 6.23413 84.6943 6.67508 85.4377 7.9628C86.1811 9.25053 85.7402 10.8971 84.4525 11.6405C83.1647 12.3831 81.519 11.9422 80.7756 10.6553C80.0314 9.36674 80.4732 7.72097 81.7608 6.97755ZM80.7748 15.2798C81.519 13.9921 83.1648 13.5512 84.4525 14.2946C85.7402 15.0388 86.1811 16.6846 85.4378 17.9723C84.6944 19.26 83.0486 19.7009 81.76 18.9576C80.4732 18.2141 80.0314 16.5675 80.7748 15.2798ZM76.7698 2.95802C78.2566 2.95802 79.4615 4.16284 79.4615 5.64969C79.4615 7.13653 78.2566 8.34304 76.7698 8.34304C75.2829 8.34304 74.0764 7.13647 74.0764 5.64969C74.0764 4.1629 75.2829 2.95802 76.7698 2.95802ZM78.0122 13C78.0122 13.6871 77.456 14.2425 76.7698 14.2425C76.0827 14.2425 75.5273 13.6871 75.5273 13C75.5273 12.313 76.0827 11.7576 76.7698 11.7576C77.456 11.7576 78.0122 12.313 78.0122 13ZM68.1009 7.9628C68.8444 6.67508 70.491 6.23419 71.7787 6.97755C73.0664 7.72092 73.5073 9.36674 72.7639 10.6553C72.0205 11.9421 70.3739 12.3839 69.0862 11.6405C67.7993 10.8971 67.3575 9.25053 68.1009 7.9628ZM71.7796 18.9576C70.491 19.701 68.8452 19.26 68.1009 17.9723C67.3584 16.6846 67.7993 15.038 69.0862 14.2937C70.3739 13.5503 72.0205 13.992 72.7639 15.2798C73.5074 16.5675 73.0664 18.2141 71.7796 18.9576ZM74.0764 20.2846C74.0764 18.7977 75.283 17.5921 76.7698 17.5921C78.2566 17.5921 79.4615 18.7978 79.4615 20.2846C79.4615 21.7713 78.2566 22.977 76.7698 22.977C75.2829 22.977 74.0764 21.7714 74.0764 20.2846Z" fill="#6C5CD6"/>
</g>
<defs>
<clipPath id="clip0_2168_258">
<rect width="28" height="24.8521" fill="white" transform="translate(64.3438 0.573975)"/>
</clipPath>
</defs>
</svg>
