<svg width="24" height="24" viewBox="0 0 24 24" fill="none" xmlns="http://www.w3.org/2000/svg">
<path opacity="0.4" d="M7.81 22L16.19 22C19.83 22 22 19.83 22 16.19L22 7.82C22 4.17 19.83 2 16.19 2L7.82 2C4.18 2 2.01 4.17 2.01 7.81L2.01 16.19C2 19.83 4.17 22 7.81 22Z" fill="white"/>
<path d="M10.7401 7.7198C10.9301 7.7198 11.1201 7.7898 11.2701 7.9398L14.8001 11.4698C15.0901 11.7598 15.0901 12.2398 14.8001 12.5298L11.2701 16.0598C10.9801 16.3498 10.5001 16.3498 10.2101 16.0598C9.9201 15.7698 9.9201 15.2898 10.2101 14.9998L13.2101 11.9998L10.2101 8.9998C9.9201 8.7098 9.9201 8.2298 10.2101 7.9398C10.3501 7.7898 10.5401 7.7198 10.7401 7.7198Z" fill="white"/>
</svg>
