<svg width="24" height="25" viewBox="0 0 24 25" fill="none" xmlns="http://www.w3.org/2000/svg">
<path opacity="0.4" d="M6.73026 20.1998C7.55026 19.3198 8.80023 19.3898 9.52023 20.3498L10.5302 21.6998C11.3402 22.7698 12.6502 22.7698 13.4602 21.6998L14.4702 20.3498C15.1902 19.3898 16.4403 19.3198 17.2603 20.1998C19.0403 22.0998 20.4902 21.4698 20.4902 18.8098V7.54974C20.4902 3.51974 19.5502 2.50977 15.7702 2.50977H8.21024C4.43024 2.50977 3.49023 3.51974 3.49023 7.54974V18.8098C3.50023 21.4698 4.96026 22.0898 6.73026 20.1998Z" fill="#6C5CD6"/>
<path d="M15.6609 13.97L14.9209 13.23C15.3009 12.65 15.5309 11.95 15.5309 11.2C15.5309 9.16001 13.8708 7.5 11.8308 7.5C9.79084 7.5 8.13086 9.16001 8.13086 11.2C8.13086 13.24 9.79084 14.9 11.8308 14.9C12.5808 14.9 13.2808 14.67 13.8608 14.29L14.6009 15.03C14.7509 15.18 14.9409 15.25 15.1309 15.25C15.3209 15.25 15.5109 15.18 15.6609 15.03C15.9509 14.74 15.9509 14.26 15.6609 13.97Z" fill="#6C5CD6"/>
</svg>
