<svg width="24" height="24" viewBox="0 0 24 24" fill="none" xmlns="http://www.w3.org/2000/svg">
<path opacity="0.4" d="M10.7509 2.45031C11.4409 1.86031 12.5708 1.86031 13.2708 2.45031L14.8509 3.81029C15.1509 4.07029 15.7108 4.28033 16.1108 4.28033H17.8109C18.8709 4.28033 19.7408 5.15032 19.7408 6.21032V7.91027C19.7408 8.30027 19.9508 8.87028 20.2108 9.17028L21.5709 10.7503C22.1609 11.4403 22.1609 12.5703 21.5709 13.2703L20.2108 14.8502C19.9508 15.1502 19.7408 15.7102 19.7408 16.1102V17.8103C19.7408 18.8703 18.8709 19.7402 17.8109 19.7402H16.1108C15.7208 19.7402 15.1509 19.9503 14.8509 20.2103L13.2708 21.5703C12.5808 22.1603 11.4509 22.1603 10.7509 21.5703L9.17087 20.2103C8.87087 19.9503 8.31086 19.7402 7.91086 19.7402H6.18085C5.12085 19.7402 4.25086 18.8703 4.25086 17.8103V16.1002C4.25086 15.7102 4.04087 15.1502 3.79087 14.8502L2.44086 13.2603C1.86086 12.5703 1.86086 11.4503 2.44086 10.7603L3.79087 9.17028C4.04087 8.87028 4.25086 8.31028 4.25086 7.92028V6.21032C4.25086 5.15032 5.12085 4.28033 6.18085 4.28033H7.91086C8.30086 4.28033 8.87087 4.07029 9.17087 3.81029L10.7509 2.45031Z" fill="#40FF63"/>
<path d="M16.5804 11.0702C16.3904 10.8002 16.0705 10.6502 15.6905 10.6502H13.7404C13.6104 10.6502 13.4905 10.6002 13.4105 10.5002C13.3305 10.4002 13.2905 10.2702 13.3105 10.1302L13.5504 8.57022C13.6504 8.11022 13.3405 7.58021 12.8805 7.43021C12.4505 7.27021 11.9404 7.49019 11.7404 7.79019L9.80045 10.6702V10.3102C9.80045 9.61022 9.50047 9.32022 8.76047 9.32022H8.27045C7.53045 9.32022 7.23047 9.61022 7.23047 10.3102V15.0902C7.23047 15.7902 7.53045 16.0802 8.27045 16.0802H8.76047C9.46047 16.0802 9.76047 15.8102 9.79047 15.1702L11.2605 16.3002C11.4605 16.5002 11.9105 16.6102 12.2305 16.6102H14.0804C14.7204 16.6102 15.3605 16.1302 15.5005 15.5402L16.6705 11.9802C16.8005 11.6602 16.7704 11.3302 16.5804 11.0702Z" fill="#40FF63"/>
</svg>
