<svg width="22" height="22" viewBox="0 0 22 22" fill="none" xmlns="http://www.w3.org/2000/svg">
<path opacity="0.4" d="M21.0009 7.69008C21.0009 8.88008 20.8108 9.9801 20.4808 11.0001C18.9008 16.0001 14.0309 18.9901 11.6209 19.8101C11.2809 19.9301 10.7209 19.9301 10.3809 19.8101C9.7409 19.5901 8.93085 19.2201 8.06085 18.7001C7.50085 18.3701 7.41085 17.5901 7.87085 17.1301L19.1509 5.85008C19.6909 5.31008 20.6409 5.54007 20.8309 6.28007C20.9409 6.73007 21.0009 7.20008 21.0009 7.69008Z" fill="white"/>
<path d="M21.5295 0.469941C21.2395 0.179941 20.7595 0.179941 20.4695 0.469941L18.1295 2.80994C17.3395 2.35994 16.4195 2.09995 15.4395 2.09995C13.6295 2.09995 12.0095 2.97993 10.9995 4.32993C9.9895 2.97993 8.36948 2.09995 6.55948 2.09995C3.48948 2.09995 0.999483 4.59994 0.999483 7.68994C0.999483 8.87994 1.1895 9.9799 1.5195 10.9999C2.1695 13.0699 3.3895 14.8 4.7695 16.17L0.469453 20.4699C0.179453 20.7599 0.179453 21.2399 0.469453 21.5299C0.619453 21.6799 0.809483 21.7499 0.999483 21.7499C1.18948 21.7499 1.37951 21.6799 1.52951 21.5299L21.5295 1.52994C21.8195 1.23994 21.8195 0.759941 21.5295 0.469941Z" fill="white"/>
</svg>
