<svg width="48" height="48" viewBox="0 0 48 48" fill="none" xmlns="http://www.w3.org/2000/svg">
<path d="M44.001 27.8001V32.3801C44.001 39.6601 39.661 44.0001 32.381 44.0001H15.6211C10.5211 44.0001 6.84109 41.8601 5.12109 38.0601L5.34109 37.9001L15.1811 31.3001C16.7811 30.2201 19.0411 30.3401 20.461 31.5801L21.141 32.1401C22.701 33.4801 25.221 33.4801 26.781 32.1401L35.101 25.0001C36.661 23.6601 39.181 23.6601 40.741 25.0001L44.001 27.8001Z" fill="#6C5CD6"/>
<path opacity="0.4" d="M41.94 16H36.06C33.52 16 32 14.48 32 11.94V6.06C32 5.26 32.16 4.58 32.44 4C32.42 4 32.4 4 32.38 4H15.62C8.34 4 4 8.34 4 15.62V32.38C4 34.56 4.38 36.46 5.12 38.06L5.34 37.9L15.18 31.3C16.78 30.22 19.04 30.34 20.46 31.58L21.14 32.14C22.7 33.48 25.22 33.48 26.78 32.14L35.1 25C36.66 23.66 39.18 23.66 40.74 25L44 27.8V15.62C44 15.6 44 15.58 44 15.56C43.42 15.84 42.74 16 41.94 16Z" fill="#6C5CD6"/>
<path d="M17.9983 20.7602C20.6272 20.7602 22.7582 18.6291 22.7582 16.0002C22.7582 13.3714 20.6272 11.2402 17.9983 11.2402C15.3694 11.2402 13.2383 13.3714 13.2383 16.0002C13.2383 18.6291 15.3694 20.7602 17.9983 20.7602Z" fill="#6C5CD6"/>
<path d="M41.94 2H36.06C33.52 2 32 3.52 32 6.06V11.94C32 14.48 33.52 16 36.06 16H41.94C44.48 16 46 14.48 46 11.94V6.06C46 3.52 44.48 2 41.94 2ZM38.02 13.14C37.96 13.2 37.82 13.28 37.72 13.28L35.64 13.58C35.58 13.6 35.5 13.6 35.44 13.6C35.14 13.6 34.88 13.5 34.7 13.3C34.46 13.06 34.36 12.72 34.42 12.36L34.72 10.28C34.74 10.18 34.8 10.04 34.86 9.98L38.26 6.58C38.32 6.72 38.38 6.88 38.44 7.04C38.52 7.2 38.6 7.34 38.68 7.48C38.74 7.6 38.82 7.72 38.9 7.8C38.98 7.92 39.06 8.04 39.12 8.1C39.16 8.16 39.18 8.18 39.2 8.2C39.38 8.42 39.58 8.62 39.76 8.76C39.8 8.8 39.84 8.84 39.86 8.84C39.96 8.92 40.08 9.02 40.16 9.08C40.28 9.16 40.38 9.24 40.5 9.3C40.64 9.38 40.8 9.46 40.96 9.54C41.12 9.62 41.28 9.68 41.42 9.72L38.02 13.14ZM42.8 8.36L42.16 9C42.12 9.06 42.06 9.08 42 9.08C41.98 9.08 41.96 9.08 41.94 9.08C40.5 8.66 39.36 7.52 38.94 6.08C38.92 6 38.94 5.92 39 5.86L39.66 5.2C40.74 4.12 41.76 4.14 42.82 5.2C43.36 5.74 43.62 6.26 43.62 6.78C43.6 7.3 43.34 7.82 42.8 8.36Z" fill="#6C5CD6"/>
</svg>
